# xmcd
#
# Track frame offsets:
#	150
#	24515
#	53840
#	79820
#	115240
#
# Disc length: 1865 seconds
#
# Revision: 1
# Processed by: cddbd v1.5.1PL0 Copyright (c) Steve Scherf et al.
# Submitted via: CDex 1.50Beta5
#
DISCID=36074705
DTITLE=池田聡 - With Strings
DYEAR=1900
DGENRE=Pop
TTITLE0=Femme Fatal
TTITLE1=なにも云わないで-NO APOLOGY-
TTITLE2=ヘヴン
TTITLE3=オルフェの後身
TTITLE4=月の舟
EXTD=
EXTT0=
EXTT1=
EXTT2=
EXTT3=
EXTT4=
PLAYORDER=
